<svg width="1748" height="1096" viewBox="0 0 1748 1096" fill="none" xmlns="http://www.w3.org/2000/svg">
<path d="M1571.26 8H95.37C47.1169 8 8 47.1169 8 95.37V839.13C8 887.383 47.1169 926.5 95.37 926.5H1571.26C1619.51 926.5 1658.63 887.383 1658.63 839.13V95.37C1658.63 47.1169 1619.51 8 1571.26 8Z" fill="white" stroke="#161515" stroke-width="16"/>
<path d="M1658.63 95.37V198.43H8V95.37C8 47.12 47.12 8 95.37 8H1571.25C1619.5 8 1658.62 47.12 1658.62 95.37H1658.63Z" fill="#EEEEEE" stroke="#161515" stroke-width="16"/>
<path d="M1275.3 77.23H1234.41C1228.53 77.23 1223.77 81.9937 1223.77 87.87V128.76C1223.77 134.636 1228.53 139.4 1234.41 139.4H1275.3C1281.18 139.4 1285.94 134.636 1285.94 128.76V87.87C1285.94 81.9937 1281.18 77.23 1275.3 77.23Z" fill="#FF5252" stroke="#161515" stroke-width="16"/>
<path d="M1404.89 77.23H1364C1358.12 77.23 1353.36 81.9937 1353.36 87.87V128.76C1353.36 134.636 1358.12 139.4 1364 139.4H1404.89C1410.77 139.4 1415.53 134.636 1415.53 128.76V87.87C1415.53 81.9937 1410.77 77.23 1404.89 77.23Z" fill="#FFE975" stroke="#161515" stroke-width="16"/>
<path d="M1534.49 77.23H1493.6C1487.72 77.23 1482.96 81.9937 1482.96 87.87V128.76C1482.96 134.636 1487.72 139.4 1493.6 139.4H1534.49C1540.37 139.4 1545.13 134.636 1545.13 128.76V87.87C1545.13 81.9937 1540.37 77.23 1534.49 77.23Z" fill="#6DF392" stroke="#161515" stroke-width="16"/>
<path d="M150.4 759L221.8 354H436L421.3 436.8H324.7L310.9 515.1H401.5L387.4 595.2H296.8L282.7 676.2H379.3L364.6 759H150.4Z" fill="#161515"/>
<path d="M427.2 759L489.3 407.4H533.7L471.6 759H427.2ZM507.3 306H551.7L542.7 354.6H498.3L507.3 306Z" fill="#161515"/>
<path d="M555.2 759L626.6 354H880.1L871.1 403.5H689.3L667.1 528.9H838.1L829.7 576.3H658.7L635.3 709.5H817.4L808.7 759H555.2Z" fill="#161515"/>
<path d="M874.5 759L936.3 407.4H1072.2L1010.4 759H874.5ZM956.7 292.5H1092.3L1077.6 375.9H941.7L956.7 292.5Z" fill="#161515"/>
<path d="M1261 762.3C1193.6 762.3 1148.6 745.3 1126 711.3C1103.4 677.3 1097.3 625.7 1107.7 556.5C1118.3 486.9 1141.7 435.2 1177.9 401.4C1214.1 367.6 1266 350.7 1333.6 350.7C1401 350.7 1446 367.7 1468.6 401.7C1491.2 435.7 1497.3 487.3 1486.9 556.5C1476.3 626.1 1452.9 677.8 1416.7 711.6C1380.5 745.4 1328.6 762.3 1261 762.3ZM1271.5 703.5C1302.3 703.5 1329.1 694.4 1351.9 676.2C1374.7 658 1391.1 618.1 1401.1 556.5C1410.9 494.5 1408.1 454.5 1392.7 436.5C1377.3 418.5 1354.1 409.5 1323.1 409.5C1292.3 409.5 1265.5 418.5 1242.7 436.5C1219.9 454.3 1203.6 494.3 1193.8 556.5C1183.8 618.1 1186.5 658 1201.9 676.2C1217.3 694.4 1240.5 703.5 1271.5 703.5Z" fill="#161515"/>
<path d="M1748 932.431L1508 710V1048.7L1608.9 977.312L1663.43 1095.8L1691.74 1082.86L1637.34 964.489L1748 932.431Z" fill="black"/>
</svg>
