<svg width="1681" height="949" viewBox="0 0 1681 949" fill="none" xmlns="http://www.w3.org/2000/svg">
<path d="M1578.26 15H102.37C54.1169 15 15 54.1169 15 102.37V846.13C15 894.383 54.1169 933.5 102.37 933.5H1578.26C1626.51 933.5 1665.63 894.383 1665.63 846.13V102.37C1665.63 54.1169 1626.51 15 1578.26 15Z" fill="#F6F5F0"/>
<path d="M102.37 945.5H1578.25C1633.05 945.5 1677.62 900.926 1677.62 846.13V102.38C1677.62 47.5829 1633.05 3.00977 1578.25 3.00977H102.37C47.5731 3.00977 3 47.5829 3 102.38V846.13C3 900.927 47.5731 945.5 102.37 945.5ZM27 102.37C27 60.8166 60.8168 26.9998 102.37 26.9998H1578.25C1619.8 26.9998 1653.62 60.8068 1653.62 102.37V846.12C1653.62 887.673 1619.81 921.49 1578.25 921.49H102.37C60.8169 921.49 27 887.673 27 846.12V102.37Z" fill="#302A2A" stroke="#302A2A" stroke-width="6"/>
<path d="M1665.63 102.37V205.43H15V102.37C15 54.12 54.12 15 102.37 15H1578.25C1626.5 15 1665.62 54.12 1665.62 102.37H1665.63Z" fill="#E0FDFB"/>
<mask id="path-4-outside-1_4_7035" maskUnits="userSpaceOnUse" x="2" y="2" width="1677" height="217" fill="black">
<rect fill="white" x="2" y="2" width="1677" height="217"/>
<path d="M1665.63 214.43H15C10.03 214.43 6 210.4 6 205.43V102.37C6 49.23 49.23 6 102.37 6H1578.25C1631.39 6 1674.62 49.23 1674.62 102.37V205.43C1674.62 210.4 1670.59 214.43 1665.62 214.43H1665.63ZM24 196.43H1656.63V102.37C1656.63 59.15 1621.47 24 1578.26 24H102.38C59.17 24 24.01 59.16 24.01 102.37V196.43H24Z"/>
</mask>
<path d="M1665.63 214.43H15C10.03 214.43 6 210.4 6 205.43V102.37C6 49.23 49.23 6 102.37 6H1578.25C1631.39 6 1674.62 49.23 1674.62 102.37V205.43C1674.62 210.4 1670.59 214.43 1665.62 214.43H1665.63ZM24 196.43H1656.63V102.37C1656.63 59.15 1621.47 24 1578.26 24H102.38C59.17 24 24.01 59.16 24.01 102.37V196.43H24Z" fill="#302A2A"/>
<path d="M1656.63 196.43V200.43H1660.63V196.43H1656.63ZM24.01 196.43V200.43H28.01V196.43H24.01ZM1665.63 210.43H15V218.43H1665.63V210.43ZM15 210.43C12.2391 210.43 10 208.191 10 205.43H2C2 212.609 7.82086 218.43 15 218.43V210.43ZM10 205.43V102.37H2V205.43H10ZM10 102.37C10 51.4391 51.4391 10 102.37 10V2C47.0209 2 2 47.0209 2 102.37H10ZM102.37 10H1578.25V2H102.37V10ZM1578.25 10C1629.18 10 1670.62 51.4391 1670.62 102.37H1678.62C1678.62 47.0209 1633.6 2 1578.25 2V10ZM1670.62 102.37V205.43H1678.62V102.37H1670.62ZM1670.62 205.43C1670.62 208.191 1668.38 210.43 1665.62 210.43V218.43C1672.8 218.43 1678.62 212.609 1678.62 205.43H1670.62ZM1665.62 218.43H1665.63V210.43H1665.62V218.43ZM24 200.43H1656.63V192.43H24V200.43ZM1660.63 196.43V102.37H1652.63V196.43H1660.63ZM1660.63 102.37C1660.63 56.9405 1623.68 20 1578.26 20V28C1619.26 28 1652.63 61.3595 1652.63 102.37H1660.63ZM1578.26 20H102.38V28H1578.26V20ZM102.38 20C56.9609 20 20.01 56.9509 20.01 102.37H28.01C28.01 61.3691 61.3791 28 102.38 28V20ZM20.01 102.37V196.43H28.01V102.37H20.01ZM24.01 192.43H24V200.43H24.01V192.43Z" fill="#302A2A" mask="url(#path-4-outside-1_4_7035)"/>
<path d="M1282.3 84.23H1241.41C1235.53 84.23 1230.77 88.9937 1230.77 94.87V135.76C1230.77 141.636 1235.53 146.4 1241.41 146.4H1282.3C1288.18 146.4 1292.94 141.636 1292.94 135.76V94.87C1292.94 88.9937 1288.18 84.23 1282.3 84.23Z" fill="#FF5252"/>
<path d="M1241.41 156.4H1282.3C1293.68 156.4 1302.94 147.142 1302.94 135.76V94.87C1302.94 83.4877 1293.68 74.23 1282.3 74.23H1241.41C1230.03 74.23 1220.77 83.4877 1220.77 94.87V135.76C1220.77 147.142 1230.03 156.4 1241.41 156.4ZM1240.77 94.87C1240.77 94.5182 1241.06 94.23 1241.41 94.23H1282.3C1282.65 94.23 1282.94 94.5161 1282.94 94.87V135.76C1282.94 136.112 1282.65 136.4 1282.3 136.4H1241.41C1241.06 136.4 1240.77 136.114 1240.77 135.76V94.87Z" fill="#302A2A" stroke="#302A2A" stroke-width="2"/>
<path d="M1411.89 84.23H1371C1365.12 84.23 1360.36 88.9937 1360.36 94.87V135.76C1360.36 141.636 1365.12 146.4 1371 146.4H1411.89C1417.77 146.4 1422.53 141.636 1422.53 135.76V94.87C1422.53 88.9937 1417.77 84.23 1411.89 84.23Z" fill="#FFE975"/>
<path d="M1371 156.4H1411.89C1423.27 156.4 1432.53 147.142 1432.53 135.76V94.87C1432.53 83.4877 1423.27 74.23 1411.89 74.23H1371C1359.62 74.23 1350.36 83.4877 1350.36 94.87V135.76C1350.36 147.142 1359.62 156.4 1371 156.4ZM1370.36 94.87C1370.36 94.5184 1370.65 94.23 1371 94.23H1411.89C1412.24 94.23 1412.53 94.5163 1412.53 94.87V135.76C1412.53 136.112 1412.24 136.4 1411.89 136.4H1371C1370.65 136.4 1370.36 136.114 1370.36 135.76V94.87Z" fill="#302A2A" stroke="#302A2A" stroke-width="2"/>
<path d="M1541.49 84.23H1500.6C1494.72 84.23 1489.96 88.9937 1489.96 94.87V135.76C1489.96 141.636 1494.72 146.4 1500.6 146.4H1541.49C1547.37 146.4 1552.13 141.636 1552.13 135.76V94.87C1552.13 88.9937 1547.37 84.23 1541.49 84.23Z" fill="#6DF392"/>
<path d="M1500.6 156.4H1541.49C1552.87 156.4 1562.13 147.142 1562.13 135.76V94.87C1562.13 83.4877 1552.87 74.23 1541.49 74.23H1500.6C1489.22 74.23 1479.96 83.4877 1479.96 94.87V135.76C1479.96 147.142 1489.22 156.4 1500.6 156.4ZM1499.96 94.87C1499.96 94.5182 1500.25 94.23 1500.6 94.23H1541.49C1541.84 94.23 1542.13 94.5161 1542.13 94.87V135.76C1542.13 136.112 1541.84 136.4 1541.49 136.4H1500.6C1500.25 136.4 1499.96 136.114 1499.96 135.76V94.87Z" fill="#302A2A" stroke="#302A2A" stroke-width="2"/>
<path d="M157.4 766L228.8 361H443L428.3 443.8H331.7L317.9 522.1H408.5L394.4 602.2H303.8L289.7 683.2H386.3L371.6 766H157.4Z" fill="#161515"/>
<path d="M434.2 766L496.3 414.4H540.7L478.6 766H434.2ZM514.3 313H558.7L549.7 361.6H505.3L514.3 313Z" fill="#161515"/>
<path d="M562.2 766L633.6 361H887.1L878.1 410.5H696.3L674.1 535.9H845.1L836.7 583.3H665.7L642.3 716.5H824.4L815.7 766H562.2Z" fill="#161515"/>
<path d="M881.5 766L943.3 414.4H1079.2L1017.4 766H881.5ZM963.7 299.5H1099.3L1084.6 382.9H948.7L963.7 299.5Z" fill="#161515"/>
<path d="M1268 769.3C1200.6 769.3 1155.6 752.3 1133 718.3C1110.4 684.3 1104.3 632.7 1114.7 563.5C1125.3 493.9 1148.7 442.2 1184.9 408.4C1221.1 374.6 1273 357.7 1340.6 357.7C1408 357.7 1453 374.7 1475.6 408.7C1498.2 442.7 1504.3 494.3 1493.9 563.5C1483.3 633.1 1459.9 684.8 1423.7 718.6C1387.5 752.4 1335.6 769.3 1268 769.3ZM1278.5 710.5C1309.3 710.5 1336.1 701.4 1358.9 683.2C1381.7 665 1398.1 625.1 1408.1 563.5C1417.9 501.5 1415.1 461.5 1399.7 443.5C1384.3 425.5 1361.1 416.5 1330.1 416.5C1299.3 416.5 1272.5 425.5 1249.7 443.5C1226.9 461.3 1210.6 501.3 1200.8 563.5C1190.8 625.1 1193.5 665 1208.9 683.2C1224.3 701.4 1247.5 710.5 1278.5 710.5Z" fill="#161515"/>
</svg>
